<svg width="17" height="17" viewBox="0 0 17 17" fill="none" xmlns="http://www.w3.org/2000/svg">
<path d="M14.1666 2.83325H2.83329C2.05413 2.83325 1.42371 3.47075 1.42371 4.24992L1.41663 12.7499C1.41663 13.5291 2.05413 14.1666 2.83329 14.1666H14.1666C14.9458 14.1666 15.5833 13.5291 15.5833 12.7499V4.24992C15.5833 3.47075 14.9458 2.83325 14.1666 2.83325ZM13.8833 5.84367L8.87538 8.9745C8.64871 9.11617 8.35121 9.11617 8.12454 8.9745L3.11663 5.84367C3.0456 5.8038 2.9834 5.74993 2.9338 5.68532C2.88419 5.62072 2.84821 5.54672 2.82803 5.46781C2.80786 5.38889 2.8039 5.30671 2.8164 5.22622C2.82891 5.14573 2.85761 5.06862 2.90078 4.99955C2.94395 4.93048 3.00069 4.87088 3.06756 4.82437C3.13443 4.77786 3.21003 4.74541 3.28981 4.72896C3.36959 4.71252 3.45187 4.71244 3.53168 4.72872C3.61149 4.74499 3.68716 4.7773 3.75413 4.82367L8.49996 7.79158L13.2458 4.82367C13.3128 4.7773 13.3884 4.74499 13.4682 4.72872C13.5481 4.71244 13.6303 4.71252 13.7101 4.72896C13.7899 4.74541 13.8655 4.77786 13.9324 4.82437C13.9992 4.87088 14.056 4.93048 14.0991 4.99955C14.1423 5.06862 14.171 5.14573 14.1835 5.22622C14.196 5.30671 14.1921 5.38889 14.1719 5.46781C14.1517 5.54672 14.1157 5.62072 14.0661 5.68532C14.0165 5.74993 13.9543 5.8038 13.8833 5.84367V5.84367Z" fill="#BDBDBD"/>
</svg>
