<svg width="15" height="15" viewBox="0 0 15 15" fill="none" xmlns="http://www.w3.org/2000/svg">
<path d="M13.4208 7.10448H14.9998C14.9998 3.05448 11.9422 0 7.8867 0V1.57895C11.0935 1.57895 13.4208 3.90237 13.4208 7.10448Z" fill="#BDBDBD"/>
<path d="M7.8946 4.73683C9.55484 4.73683 10.263 5.44499 10.263 7.10525H11.8419C11.8419 4.55919 10.4406 3.15788 7.8946 3.15788V4.73683ZM10.5961 9.03394C10.4444 8.89606 10.2451 8.82252 10.0402 8.82886C9.83531 8.83519 9.64089 8.9209 9.498 9.06789L7.60881 11.0108C7.15408 10.9239 6.23989 10.6389 5.29885 9.70026C4.35781 8.75841 4.07281 7.84183 3.98834 7.39025L5.92963 5.50025C6.07679 5.35745 6.16263 5.163 6.16896 4.95804C6.1753 4.75308 6.10164 4.5537 5.96357 4.40209L3.04651 1.19445C2.90839 1.04236 2.71642 0.950113 2.51138 0.937288C2.30633 0.924464 2.10437 0.992077 1.94837 1.12577L0.235238 2.59498C0.098749 2.73197 0.0172831 2.91428 0.00629415 3.10735C-0.00554778 3.30472 -0.231334 7.97999 3.39388 11.6068C6.55646 14.7687 10.518 15 11.609 15C11.7685 15 11.8664 14.9953 11.8924 14.9937C12.0855 14.9829 12.2677 14.901 12.404 14.7639L13.8724 13.05C14.0062 12.8941 14.0739 12.6922 14.0613 12.4871C14.0486 12.2821 13.9565 12.0901 13.8045 11.9518L10.5961 9.03394Z" fill="#BDBDBD"/>
</svg>
